<svg xmlns="http://www.w3.org/2000/svg" viewBox="0 0 64 64">
  <defs>
    <linearGradient id="markBg" x1="8" y1="4" x2="56" y2="60" gradientUnits="userSpaceOnUse">
      <stop stop-color="#2563eb"/>
      <stop offset=".52" stop-color="#0f766e"/>
      <stop offset="1" stop-color="#f97316"/>
    </linearGradient>
    <linearGradient id="lens" x1="20" y1="20" x2="44" y2="46" gradientUnits="userSpaceOnUse">
      <stop stop-color="#ffffff"/>
      <stop offset="1" stop-color="#dbeafe"/>
    </linearGradient>
  </defs>
  <rect width="64" height="64" rx="18" fill="#f8fafc"/>
  <rect x="5" y="5" width="54" height="54" rx="16" fill="url(#markBg)"/>
  <path d="M32 13l18 7v12c0 11.7-7.3 18.6-18 22-10.7-3.4-18-10.3-18-22V20l18-7z" fill="#fff" opacity=".18"/>
  <path d="M21 23h15.5c6.4 0 10.5 4.2 10.5 10s-4.1 10-10.5 10H30v8h-9V23zm9 8v4.8h6.1c1.8 0 3-1 3-2.4S37.9 31 36.1 31H30z" fill="#ffffff"/>
  <circle cx="43" cy="22" r="4" fill="#34d399"/>
  <circle cx="32" cy="33" r="7" fill="url(#lens)" opacity=".9"/>
</svg>
